<svg xmlns="http://www.w3.org/2000/svg" xmlns:xlink="http://www.w3.org/1999/xlink" width="521" height="111">
  <defs>
    <filter id="a" width="144.7%" height="144.7%" x="-22.4%" y="-21.2%" filterUnits="objectBoundingBox">
      <feMorphology in="SourceAlpha" operator="dilate" radius="6.5" result="shadowSpreadOuter1"/>
      <feOffset dy="1" in="shadowSpreadOuter1" result="shadowOffsetOuter1"/>
      <feMorphology in="SourceAlpha" radius="6.5" result="shadowInner"/>
      <feOffset dy="1" in="shadowInner" result="shadowInner"/>
      <feComposite in="shadowOffsetOuter1" in2="shadowInner" operator="out" result="shadowOffsetOuter1"/>
      <feGaussianBlur in="shadowOffsetOuter1" result="shadowBlurOuter1" stdDeviation="4"/>
      <feColorMatrix in="shadowBlurOuter1" values="0 0 0 0 0.815686275 0 0 0 0 0.82745098 0 0 0 0 0.901960784 0 0 0 1 0"/>
    </filter>
    <circle id="b" cx="42.5" cy="42.5" r="42.5"/>
  </defs>
  <g fill="none" fill-rule="evenodd" transform="translate(13 13)">
    <use fill="#000" filter="url(#a)" xlink:href="#b"/>
    <use stroke="#CDD9E8" stroke-width="13" xlink:href="#b"/>
    <path stroke="#3D5399" stroke-linecap="round" stroke-linejoin="round" stroke-width="13" d="M43 85c23.472 0 42.5-19.028 42.5-42.5S66.472 0 43 0"/>
    <path stroke="#788ECE" stroke-linecap="round" stroke-width="13" d="M85.353 42.353C85.353 18.963 66.39 0 43 0"/>
    <rect width="68.571" height="7" x="184.1" y="22.16" fill="#788ECE" rx="2"/>
    <g transform="translate(142 13)">
      <path d="M0 0h25.21v25.21H0z"/>
      <path fill="#788ECE" fill-rule="nonzero" d="M15.25 4.76l7.463 13.435a3.025 3.025 0 01-2.644 4.494H5.14a3.025 3.025 0 01-2.644-4.494L9.96 4.76a3.025 3.025 0 015.289 0z"/>
      <rect width="2.241" height="7.843" x="11.485" y="8.571" fill="#FFF" fill-rule="nonzero" rx="1.008" transform="matrix(1 0 0 -1 0 24.986)"/>
      <circle cx="12.605" cy="18.655" r="1.12" fill="#FFF" fill-rule="nonzero" transform="matrix(1 0 0 -1 0 37.31)"/>
    </g>
    <rect width="68.571" height="7" x="184.1" y="66.025" fill="#3D5399" fill-rule="nonzero" rx="2"/>
    <path d="M142 56h25.21v25.21H142z"/>
    <path fill="#3D5399" fill-rule="nonzero" d="M143.26 68.605c0 6.266 5.08 11.345 11.345 11.345 6.266 0 11.345-5.079 11.345-11.345 0-6.266-5.079-11.344-11.345-11.344-6.266 0-11.344 5.078-11.344 11.344z"/>
    <path fill="#FFF" fill-rule="nonzero" d="M149.577 65.301a.504.504 0 01-.01-.712l.882-.881a.498.498 0 01.712.009l8.192 8.192c.2.199.203.518.01.712l-.882.881a.498.498 0 01-.712-.009l-8.192-8.192z"/>
    <path fill="#FFF" fill-rule="nonzero" d="M157.769 63.717a.504.504 0 01.712-.01l.881.882a.498.498 0 01-.009.712l-8.192 8.192a.504.504 0 01-.712.01l-.881-.882a.498.498 0 01.009-.712l8.192-8.192z"/>
    <rect width="194" height="10" x="313.671" y="8" fill="#788ECE" rx="3"/>
    <rect width="184" height="10" x="313.671" y="52" fill="#788ECE" rx="3"/>
    <rect width="140" height="10" x="313.671" y="30" fill="#CDD9E8" rx="3"/>
    <rect width="136" height="10" x="313.671" y="74" fill="#CDD9E8" rx="3"/>
  </g>
</svg>
