<svg xmlns="http://www.w3.org/2000/svg" width="20" height="20" viewBox="0 0 20 20">
    <g fill="none" fill-rule="evenodd">
        <path d="M0 0h20v20H0z"/>
        <path fill="#faa61e" fill-rule="nonzero" d="M11.9 9.044c3.65-3.589 6.554-5.461 7.024-4.965.47.495-1.244 3.255-4.894 6.844-2.736 2.69-5.012 4.435-6.178 4.931-.115.112-.282.157-.496.144a.42.42 0 0 1-.21-.027c-.823-.165-2.154-.993-3.523-2.407-1.891-1.955-3.01-3.938-2.5-4.43.512-.493 2.682.396 4.574 2.35.911.942 1.562 1.878 1.934 2.651.755-1.251 2.185-3.042 4.269-5.09z"/>
    </g>
</svg>
